<?xml version="1.0" encoding="UTF-8"?>
<svg viewBox="0 0 280 55"  height="55" version="1.1" xmlns="http://www.w3.org/2000/svg" xmlns:xlink="http://www.w3.org/1999/xlink">
    <!-- Generator: Sketch 53.2 (72643) - https://sketchapp.com -->
    <title>WIOA StatePlan</title>
    <desc>Logo for WIOA State Plan Portal</desc>
    <g id="Logo-/-StatePlan" stroke="none" stroke-width="1" fill="none" fill-rule="evenodd">
        <g id="WIOA-StatePlanLogo">
            <polygon id="Fill-26" fill="#E31C3D" points="107.5 20 109.509023 23.9503482 114 24.5837118 110.750624 27.6584923 111.518046 32 107.5 29.9497427 103.481954 32 104.249376 27.6584923 101 24.5837118 105.490977 23.9503482"></polygon>
            <path d="M127.067,43.016 C122.939,43.016 119.714,41.253 117.478,38.759 L118.768,37.383 C120.832,39.705 123.799,41.21 127.067,41.21 C131.41,41.21 134.119,38.888 134.119,35.534 C134.119,31.965 131.84,30.847 129.045,29.6 L124.745,27.665 C122.294,26.59 118.983,24.827 118.983,20.613 C118.983,16.528 122.509,13.647 127.239,13.647 C130.636,13.647 133.388,15.195 135.108,17.044 L133.99,18.334 C132.313,16.614 130.077,15.453 127.239,15.453 C123.498,15.453 120.961,17.431 120.961,20.527 C120.961,23.795 123.799,25.042 125.863,25.988 L130.163,27.88 C133.345,29.299 136.14,31.062 136.14,35.405 C136.14,39.748 132.571,43.016 127.067,43.016 Z M145.409,43.016 C141.41,43.016 140.249,40.479 140.249,36.781 L140.249,23.494 L137.024,23.494 L137.024,22.032 L140.292,21.86 L140.55,15.883 L142.184,15.883 L142.184,21.86 L148.161,21.86 L148.161,23.494 L142.184,23.494 L142.184,36.953 C142.184,39.576 142.829,41.339 145.667,41.339 C146.441,41.339 147.516,41.038 148.247,40.694 L148.763,42.242 C147.559,42.672 146.269,43.016 145.409,43.016 Z M156.171,43.016 C152.903,43.016 150.194,41.253 150.194,37.34 C150.194,32.782 154.322,30.589 163.524,29.557 C163.567,26.418 162.707,23.021 158.622,23.021 C155.87,23.021 153.462,24.397 152.043,25.429 L151.183,24.01 C152.645,22.978 155.526,21.344 158.88,21.344 C163.739,21.344 165.416,24.87 165.416,29.299 L165.416,42.5 L163.782,42.5 L163.61,39.834 L163.481,39.834 C161.374,41.511 158.88,43.016 156.171,43.016 Z M156.515,41.382 C158.88,41.382 160.944,40.221 163.524,38.028 L163.524,31.019 C155.01,32.008 152.129,33.986 152.129,37.254 C152.129,40.221 154.15,41.382 156.515,41.382 Z M176.749,43.016 C172.75,43.016 171.589,40.479 171.589,36.781 L171.589,23.494 L168.364,23.494 L168.364,22.032 L171.632,21.86 L171.89,15.883 L173.524,15.883 L173.524,21.86 L179.501,21.86 L179.501,23.494 L173.524,23.494 L173.524,36.953 C173.524,39.576 174.169,41.339 177.007,41.339 C177.781,41.339 178.856,41.038 179.587,40.694 L180.103,42.242 C178.899,42.672 177.609,43.016 176.749,43.016 Z M190.705,43.016 C185.416,43.016 181.159,38.974 181.159,32.223 C181.159,25.472 185.545,21.344 190.146,21.344 C195.048,21.344 198.058,24.827 198.058,30.89 C198.058,31.406 198.058,31.922 197.972,32.438 L183.094,32.438 C183.18,37.641 186.233,41.382 190.877,41.382 C193.113,41.382 194.876,40.651 196.424,39.533 L197.198,40.995 C195.564,41.984 193.715,43.016 190.705,43.016 Z M183.094,30.89 L196.252,30.89 C196.252,25.601 193.887,22.978 190.189,22.978 C186.663,22.978 183.524,25.945 183.094,30.89 Z M210.103,42.5 L210.103,14.163 L217.241,14.163 C223.648,14.163 227.518,16.227 227.518,22.075 C227.518,27.622 223.734,30.331 217.413,30.331 L212.081,30.331 L212.081,42.5 L210.103,42.5 Z M212.081,28.654 L216.94,28.654 C222.702,28.654 225.497,26.719 225.497,22.075 C225.497,17.302 222.616,15.84 216.768,15.84 L212.081,15.84 L212.081,28.654 Z M234.852,43.016 C233.175,43.016 232.315,41.984 232.315,39.748 L232.315,11.583 L234.207,11.583 L234.207,40.006 C234.207,40.909 234.594,41.339 235.11,41.339 C235.282,41.339 235.454,41.339 235.884,41.253 L236.228,42.801 C235.841,42.93 235.454,43.016 234.852,43.016 Z M245.841,43.016 C242.573,43.016 239.864,41.253 239.864,37.34 C239.864,32.782 243.992,30.589 253.194,29.557 C253.237,26.418 252.377,23.021 248.292,23.021 C245.54,23.021 243.132,24.397 241.713,25.429 L240.853,24.01 C242.315,22.978 245.196,21.344 248.55,21.344 C253.409,21.344 255.086,24.87 255.086,29.299 L255.086,42.5 L253.452,42.5 L253.28,39.834 L253.151,39.834 C251.044,41.511 248.55,43.016 245.841,43.016 Z M246.185,41.382 C248.55,41.382 250.614,40.221 253.194,38.028 L253.194,31.019 C244.68,32.008 241.799,33.986 241.799,37.254 C241.799,40.221 243.82,41.382 246.185,41.382 Z M260.079,42.5 L260.079,21.86 L261.713,21.86 L261.885,25.042 L262.014,25.042 C264.121,22.935 266.271,21.344 269.109,21.344 C273.366,21.344 275.344,23.924 275.344,29.256 L275.344,42.5 L273.452,42.5 L273.452,29.514 C273.452,25.128 272.076,23.064 268.722,23.064 C266.271,23.064 264.508,24.354 261.971,26.934 L261.971,42.5 L260.079,42.5 Z" id="StatePlan" fill="#122E51" fill-rule="nonzero"></path>
            <path d="M5.332,42.5 L0.43,14.55 L7.998,14.55 L9.546,26.762 C9.847,29.686 10.191,32.61 10.492,35.534 L10.664,35.534 C11.18,32.61 11.696,29.643 12.212,26.762 L14.878,14.55 L21.07,14.55 L23.736,26.762 C24.252,29.557 24.768,32.567 25.284,35.534 L25.456,35.534 C25.757,32.567 26.101,29.6 26.402,26.762 L27.95,14.55 L35.002,14.55 L30.358,42.5 L20.984,42.5 L18.834,31.406 C18.404,29.256 18.06,26.934 17.802,24.87 L17.63,24.87 C17.329,26.934 17.028,29.256 16.598,31.406 L14.534,42.5 L5.332,42.5 Z M37.348,42.5 L37.348,14.55 L44.744,14.55 L44.744,42.5 L37.348,42.5 Z M61.538,43.016 C53.798,43.016 48.552,37.598 48.552,28.396 C48.552,19.194 53.798,14.034 61.538,14.034 C69.278,14.034 74.524,19.237 74.524,28.396 C74.524,37.598 69.278,43.016 61.538,43.016 Z M61.538,36.652 C64.892,36.652 66.956,33.47 66.956,28.396 C66.956,23.322 64.892,20.398 61.538,20.398 C58.184,20.398 56.12,23.322 56.12,28.396 C56.12,33.47 58.184,36.652 61.538,36.652 Z M85.126,28.912 L84.653,30.847 L89.813,30.847 L89.34,28.912 C88.652,26.246 87.964,22.849 87.276,20.054 L87.104,20.054 C86.502,22.892 85.814,26.246 85.126,28.912 Z M74.376,42.5 L82.89,14.55 L91.834,14.55 L100.348,42.5 L92.522,42.5 L91.146,36.566 L83.32,36.566 L81.944,42.5 L74.376,42.5 Z" id="WIOA" fill="#0D71B9" fill-rule="nonzero"></path>
        </g>
    </g>
</svg>
