<?xml version="1.0" encoding="UTF-8"?>
<svg width="175px" height="40px" viewBox="0 0 175 40" version="1.1" xmlns="http://www.w3.org/2000/svg" xmlns:xlink="http://www.w3.org/1999/xlink">
    <!-- Generator: Sketch 48.2 (47327) - http://www.bohemiancoding.com/sketch -->
    <title>Group</title>
    <desc>Created with Sketch.</desc>
    <defs></defs>
    <g id="Page-1" stroke="none" stroke-width="1" fill="none" fill-rule="evenodd">
        <g id="Group" fill="#FFFFFF">
            <g id="aerospace-icon-only" fill-rule="nonzero">
                <path d="M18.985,37.335 C9.664,37.318 2.125,29.778 2.109,20.458 C2.125,11.139 9.664,3.6 18.985,3.582 C21.47,3.587 23.826,4.131 25.949,5.096 L4.489,26.556 L11.738,26.556 L16.931,21.363 L25.862,12.432 L25.862,21.363 L17.281,21.363 L17.281,26.556 L31.046,26.556 L31.046,8.672 C34.1312127,11.819458 35.8601506,16.0506169 35.862,20.458 C35.845,29.778 28.305,37.318 18.985,37.335 M31.046,5.796 L31.046,0 L27.536,3.509 C24.8855046,2.16703261 21.9558575,1.46913868 18.985,1.472 C8.5,1.472 0,9.973 0,20.458 C0,30.943 8.5,39.444 18.985,39.444 C29.47,39.444 37.969,30.943 37.969,20.458 C37.969,14.553 35.273,9.278 31.046,5.796" id="Shape"></path>
            </g>
            <g id="aerospace-type-only" transform="translate(43.000000, 7.000000)">
                <path d="M75.045,5.714 L70.678,5.714 C70.874,4.797 70.909,4.124 70.731,3.692 C70.559,3.234 70.174,3.019 69.5,3.019 C68.368,3.019 67.551,3.692 67.254,5.094 C66.4,9.109 75.103,7.088 73.659,13.879 C72.731,18.244 69.934,19.996 65.783,19.996 C62.496,19.996 59.662,18.999 60.516,14.984 L60.779,13.744 L65.145,13.744 L65.001,14.418 C64.692,15.873 64.862,16.978 66.425,16.978 C68.015,16.978 68.725,15.792 68.96,14.687 C69.842,10.537 61.076,12.855 62.605,5.66 C63.259,2.588 65.452,1.77635684e-15 70.115,1.77635684e-15 C74.642,1.77635684e-15 75.772,2.291 75.142,5.256 L75.045,5.714 Z M117.397,7.061 L113.031,7.061 C113.627,4.258 113.567,3.019 112.058,3.019 C110.252,3.019 109.724,4.743 108.653,9.783 C107.438,15.495 107.312,16.978 109.198,16.978 C110.869,16.978 111.464,15.064 112.127,12.073 L116.493,12.073 L116.349,12.747 C115.468,16.897 113.649,19.996 108.045,19.996 C102.25,19.996 102.715,15.657 103.947,9.864 C104.995,4.932 106.312,0 112.727,0 C116.715,0 118.531,1.725 117.569,6.252 L117.397,7.061 Z M51.203,19.996 C45.248,19.996 45.264,16.115 46.565,9.998 C47.865,3.881 49.498,0.001 55.453,0.001 C61.868,0.001 61.227,4.663 60.093,9.998 C58.958,15.334 57.617,19.996 51.203,19.996 Z M15.361,19.619 L10.672,19.619 L10.75,15.954 L6.142,15.954 L4.689,19.619 L0,19.619 L8.995,0.378 L14.654,0.378 L15.361,19.619 Z M34.279,19.619 L29.752,19.619 L33.842,0.378 L41.441,0.378 C45.295,0.378 46.111,2.749 45.55,5.39 C44.954,8.193 43.53,9.567 41.32,10.079 L41.308,10.133 C44.106,10.537 43.883,12.343 43.388,14.93 C42.661,18.73 42.715,19.107 43.304,19.376 L43.253,19.619 L38.375,19.619 C38.163,18.972 38.257,17.894 38.721,15.711 C39.431,12.37 39.122,11.669 37.694,11.669 L35.969,11.669 L34.279,19.619 Z M101.599,19.619 L96.91,19.619 L96.988,15.954 L92.38,15.954 L90.927,19.619 L86.238,19.619 L95.234,0.378 L100.892,0.378 L101.599,19.619 Z M27.973,19.619 L16.547,19.619 L20.637,0.378 L31.767,0.378 L30.988,4.043 L24.385,4.043 L23.567,7.897 L29.764,7.897 L28.985,11.562 L22.787,11.562 L21.853,15.954 L28.752,15.954 L27.973,19.619 Z M130.946,4.043 L124.344,4.043 L123.525,7.897 L129.723,7.897 L128.944,11.562 L122.746,11.562 L121.812,15.954 L128.71,15.954 L127.932,19.619 L116.505,19.619 L120.596,0.378 L131.725,0.378 L130.946,4.043 Z M78.879,19.619 L74.352,19.619 L78.442,0.378 L85.449,0.378 C90.219,0.378 90.402,3.827 89.892,6.226 C89.158,9.675 86.999,12.101 82.472,12.101 L80.478,12.101 L78.879,19.619 Z M51.818,16.978 C53.651,16.978 54.281,15.281 55.404,9.998 C56.526,4.717 56.618,3.019 54.785,3.019 C53.007,3.019 52.376,4.717 51.253,9.998 C50.13,15.281 50.039,16.978 51.818,16.978 Z M10.999,3.881 L10.945,3.881 L7.533,12.45 L10.821,12.45 L10.999,3.881 Z M97.237,3.881 L97.184,3.881 L93.771,12.45 L97.059,12.45 L97.237,3.881 Z M81.188,8.759 L82.428,8.759 C84.233,8.759 84.905,7.627 85.18,6.334 C85.495,4.852 85.25,3.72 83.418,3.72 L82.259,3.72 L81.188,8.759 Z M39.068,3.557 L37.693,3.557 L36.645,8.489 L38.046,8.489 C39.879,8.489 40.656,7.115 40.896,5.983 C41.206,4.528 40.873,3.557 39.068,3.557 Z" id="Shape"></path>
            </g>
        </g>
    </g>
</svg>