<?xml version="1.0" encoding="UTF-8"?>
<svg id="Layer_2" xmlns="http://www.w3.org/2000/svg" viewBox="0 0 241.04 43.61"><defs><style>.cls-1{fill:#fff;}</style></defs><g id="Layer_1-2"><g><g><path class="cls-1" d="M229.32,0H11.62C5.21,0,0,5.21,0,11.62V31.99c0,6.41,5.21,11.62,11.62,11.62H229.32c6.41,0,11.62-5.21,11.62-11.62V11.62c0-6.41-5.21-11.62-11.62-11.62Zm7.59,31.99c0,4.18-3.42,7.6-7.59,7.6H11.62c-4.18,0-7.59-3.42-7.59-7.6V11.62c0-4.18,3.42-7.6,7.59-7.6H229.32c4.18,0,7.59,3.42,7.59,7.6V31.99Z"/><path class="cls-1" d="M22.69,18.15c0-1.2-1-1.92-2.69-1.92h-3.88v3.84h3.88c1.77,0,2.69-.75,2.69-1.92Zm3.98-.7c0,2.35-1.57,3.56-2.39,3.95,.98,.29,3.41,1.29,3.41,4.49s-2.7,5.01-6.81,5.01H12.22V12.72h8.44c4.07,0,6,2.21,6,4.73Zm-2.96,7.95c0-1.13-.84-2-2.9-2h-4.69v4h4.69c1.77,0,2.9-.65,2.9-2Zm7.66-12.67h4v14.55h9.04v3.64h-13.04V12.72Zm22.7-.13h3.93l7.79,18.31h-4.42l-1.66-4.08h-7.69l-1.66,4.08h-4.21l7.92-18.31Zm4.32,10.96l-2.53-6.16-2.53,6.16h5.06Zm27.73-10.83h4v7.95l6.85-7.95h5.36l-8.06,8.82,8.5,9.36h-5.36l-7.29-8.19v8.19h-4V12.72Zm91.23,0h4v7.95l6.85-7.95h5.36l-8.06,8.82,8.5,9.36h-5.36l-7.29-8.19v8.19h-4V12.72Zm-69.37,10.88h-4.7v-3.58h4.7v-4.67h3.69v4.67h4.7v3.58h-4.7v4.68h-3.69v-4.68Zm30.63-1.79c0,5.12-3.95,9.09-9.66,9.09h-6.83V12.72h6.83c5.71,0,9.66,3.97,9.66,9.09Zm-4.18,0c0-3.22-2.21-5.48-5.48-5.48h-2.83v10.96h2.83c3.27,0,5.48-2.26,5.48-5.48Zm61.85-9.09h13.03v3.56h-9.06v3.61h8.02v3.56h-8.02v3.9h9.2v3.56h-13.17V12.72Zm-54.16,0h13.04v3.56h-9.06v3.61h8.02v3.56h-8.02v3.9h9.2v3.56h-13.17V12.72Zm85.84,5.83c0,4.4-3.24,5.59-4.53,5.87l5.28,6.48h-5.04l-4.78-6.21h-1.47v6.21h-4V12.72h7.69c4.35,0,6.86,2.44,6.86,5.83Zm-4.05,.21c0-1.62-1.26-2.43-3.21-2.43h-3.28v4.83h3.36c1.95,0,3.13-.87,3.13-2.4Zm-66.05,3.05c0-4.72,3.67-9.4,9.84-9.4,3.18,0,5.55,1.19,5.9,1.35v3.86c-.32-.2-2.38-1.52-5.29-1.52-3.97,0-6.27,2.63-6.27,5.71,0,3.39,2.52,5.71,6.03,5.71,2.44,0,4.13-1.18,4.54-1.46l1.92,2.96c-.77,.63-2.82,2.19-7.04,2.19-5.69,0-9.64-4.35-9.64-9.4Zm-91.23,0c0-4.72,3.67-9.4,9.84-9.4,3.18,0,5.55,1.19,5.9,1.35v3.86c-.32-.2-2.38-1.52-5.28-1.52-3.98,0-6.28,2.63-6.28,5.71,0,3.39,2.52,5.72,6.04,5.72,2.44,0,4.12-1.18,4.54-1.46l1.92,2.96c-.76,.63-2.82,2.19-7.04,2.19-5.7,0-9.64-4.35-9.64-9.4Z"/></g><path class="cls-1" d="M237.79,1.72h0c0-.9,.72-1.65,1.63-1.65s1.63,.74,1.63,1.63h0c0,.9-.72,1.65-1.63,1.65s-1.63-.74-1.63-1.63Zm3.07,0h0c0-.81-.62-1.46-1.44-1.46s-1.44,.66-1.44,1.46h0c0,.81,.62,1.46,1.44,1.46s1.44-.66,1.44-1.46Zm-2.12-.88h.8c.39,0,.68,.18,.68,.56,0,.27-.15,.45-.37,.52l.43,.61h-.5l-.37-.53h-.26v.53h-.41V.83Zm.77,.82c.19,0,.29-.09,.29-.23,0-.15-.11-.23-.29-.23h-.36v.47h.36Z"/></g></g></svg>
