<?xml version="1.0" encoding="utf-8"?>
<!-- Generator: Adobe Illustrator 18.0.0, SVG Export Plug-In . SVG Version: 6.00 Build 0)  -->
<!DOCTYPE svg PUBLIC "-//W3C//DTD SVG 1.1//EN" "http://www.w3.org/Graphics/SVG/1.1/DTD/svg11.dtd">
<svg version="1.1" id="Layer_1" xmlns="http://www.w3.org/2000/svg" xmlns:xlink="http://www.w3.org/1999/xlink" x="0px" y="0px"
	 viewBox="0 0 40 40" enable-background="new 0 0 40 40" xml:space="preserve">
<symbol  id="StudioM_Royalty-Free_OpMGT_015" viewBox="-141.73 -141.73 283.46 283.47">
	<path fill="#010101" d="M127.56,141.73L70.87,85.04l-56.69,56.69H0l70.87-70.87l70.87,70.87H127.56z M113.39,141.73H99.21
		l-28.35-28.35l-28.35,28.35H28.35l42.52-42.52L113.39,141.73z M85.04,141.73H56.69l14.17-14.17L85.04,141.73z M0,0h14.17
		l56.69,56.69L127.56,0h14.17L70.87,70.87L0,0z M28.35,0h14.17l28.35,28.35L99.21,0h14.17L70.87,42.52L28.35,0z M56.69,0h28.35
		L70.87,14.17L56.69,0z M141.73,14.17v14.17L99.21,70.87l42.52,42.52v14.17L85.04,70.87L141.73,14.17z M141.73,42.52v14.17
		l-14.17,14.17l14.17,14.17v14.17l-28.35-28.35L141.73,42.52z M0,127.56v-14.17l42.52-42.52L0,28.35V14.17l56.69,56.69L0,127.56z
		 M0,99.21V85.04l14.17-14.17L0,56.69V42.52l28.35,28.35L0,99.21z"/>
	<path fill="#010101" d="M127.56,0L70.87-56.69L14.17,0H0l70.87-70.87L141.73,0H127.56z M113.39,0H99.21L70.87-28.35L42.52,0H28.35
		l42.52-42.52L113.39,0z M85.04,0H56.69l14.17-14.17L85.04,0z M0-141.73h14.17l56.69,56.69l56.69-56.69h14.17L70.87-70.87L0-141.73z
		 M28.35-141.73h14.17l28.35,28.35l28.35-28.35h14.17L70.87-99.21L28.35-141.73z M56.69-141.73h28.35l-14.17,14.17L56.69-141.73z
		 M141.73-127.56v14.17L99.21-70.87l42.52,42.52v14.17L85.04-70.87L141.73-127.56z M141.73-99.21v14.17l-14.17,14.17l14.17,14.17
		v14.17l-28.35-28.35L141.73-99.21z M0-14.17v-14.17l42.52-42.52L0-113.39v-14.17l56.69,56.7L0-14.17z M0-42.52v-14.17l14.17-14.17
		L0-85.04v-14.17l28.35,28.35L0-42.52z"/>
	<path fill="#010101" d="M-14.17,0l-56.69-56.69L-127.56,0h-14.17l70.87-70.87L0,0H-14.17z M-28.34,0h-14.17l-28.35-28.35L-99.21,0
		h-14.17l42.52-42.52L-28.34,0z M-56.69,0h-28.35l14.17-14.17L-56.69,0z M-141.73-141.73h14.17l56.69,56.69l56.69-56.69H0
		l-70.87,70.87L-141.73-141.73z M-113.39-141.73h14.17l28.35,28.35l28.35-28.35h14.17l-42.52,42.52L-113.39-141.73z M-85.04-141.73
		h28.35l-14.17,14.17L-85.04-141.73z M0-127.56v14.17l-42.52,42.52L0-28.35v14.17l-56.69-56.69L0-127.56z M0-99.21v14.17
		l-14.17,14.17L0-56.69v14.17l-28.35-28.35L0-99.21z M-141.73-14.17v-14.17l42.52-42.52l-42.52-42.52v-14.17l56.69,56.7
		L-141.73-14.17z M-141.73-42.52v-14.17l14.17-14.17l-14.17-14.17v-14.17l28.35,28.35L-141.73-42.52z"/>
	<path fill="#010101" d="M-14.17,141.73l-56.69-56.69l-56.69,56.69h-14.17l70.87-70.87L0,141.73H-14.17z M-28.34,141.73h-14.17
		l-28.35-28.35l-28.35,28.35h-14.17l42.52-42.52L-28.34,141.73z M-56.69,141.73h-28.35l14.17-14.17L-56.69,141.73z M-141.73,0h14.17
		l56.69,56.69L-14.17,0H0l-70.87,70.87L-141.73,0z M-113.39,0h14.17l28.35,28.35L-42.52,0h14.17l-42.52,42.52L-113.39,0z M-85.04,0
		h28.35l-14.17,14.17L-85.04,0z M0,14.17v14.17l-42.52,42.52L0,113.39v14.17l-56.69-56.69L0,14.17z M0,42.52v14.17l-14.17,14.17
		L0,85.04v14.17l-28.35-28.35L0,42.52z M-141.73,127.56v-14.17l42.52-42.52l-42.52-42.52V14.17l56.69,56.69L-141.73,127.56z
		 M-141.73,99.21V85.04l14.17-14.17l-14.17-14.17V42.52l28.35,28.35L-141.73,99.21z"/>
</symbol>
<use xlink:href="#StudioM_Royalty-Free_OpMGT_015"  width="283.46" height="283.47" id="XMLID_1_" x="-141.73" y="-141.73" transform="matrix(0.1411 0 0 -0.1411 20 20)" overflow="visible" opacity="0.1"/>
</svg>
